<svg width="209" height="127" viewBox="0 0 209 127" fill="none" xmlns="http://www.w3.org/2000/svg">
<path d="M103.592 50V23.18H121.484V27.5H108.488V34.916H119.864V39.236H108.488V50H103.592ZM124.686 50V23.18H129.582V50H124.686ZM134.74 50V23.18H138.556L153.316 43.052L151.336 43.448V23.18H156.232V50H152.38L137.836 29.984L139.636 29.588V50H134.74ZM161.424 50V23.18H170.172C173.004 23.18 175.464 23.756 177.552 24.908C179.664 26.036 181.296 27.608 182.448 29.624C183.6 31.616 184.176 33.932 184.176 36.572C184.176 39.188 183.6 41.516 182.448 43.556C181.296 45.572 179.664 47.156 177.552 48.308C175.464 49.436 173.004 50 170.172 50H161.424ZM166.32 45.68H170.28C172.104 45.68 173.676 45.308 174.996 44.564C176.34 43.796 177.384 42.74 178.128 41.396C178.872 40.028 179.244 38.42 179.244 36.572C179.244 34.7 178.872 33.092 178.128 31.748C177.384 30.404 176.34 29.36 174.996 28.616C173.676 27.872 172.104 27.5 170.28 27.5H166.32V45.68Z" fill="#E6E6E6"/>
<path d="M100.592 114V87.18H111.896C113.672 87.18 115.184 87.492 116.432 88.116C117.704 88.716 118.676 89.58 119.348 90.708C120.044 91.812 120.392 93.156 120.392 94.74C120.392 95.964 120.056 97.116 119.384 98.196C118.736 99.252 117.692 100.128 116.252 100.824V98.556C117.572 99.06 118.616 99.684 119.384 100.428C120.152 101.172 120.692 102 121.004 102.912C121.316 103.824 121.472 104.784 121.472 105.792C121.472 108.36 120.62 110.376 118.916 111.84C117.236 113.28 114.896 114 111.896 114H100.592ZM105.488 109.68H112.4C113.672 109.68 114.68 109.332 115.424 108.636C116.192 107.916 116.576 106.968 116.576 105.792C116.576 104.616 116.192 103.668 115.424 102.948C114.68 102.228 113.672 101.868 112.4 101.868H105.488V109.68ZM105.488 97.584H112.148C113.156 97.584 113.96 97.296 114.56 96.72C115.16 96.12 115.46 95.352 115.46 94.416C115.46 93.48 115.16 92.736 114.56 92.184C113.96 91.632 113.156 91.356 112.148 91.356H105.488V97.584ZM125.483 114V87.18H130.379V114H125.483ZM135.537 114V87.18H140.433V101.148L139.101 100.68L150.513 87.18H156.669L145.977 99.852L146.265 96.396L156.993 114H151.233L144.033 102.192L140.433 106.476V114H135.537ZM159.971 114V87.18H177.791V91.5H164.867V98.376H177.071V102.696H164.867V109.68H177.791V114H159.971Z" fill="#E6E6E6"/>
<path d="M109.15 83.3166V71.4366L100.114 56.4966H105.694L112.606 68.1606H110.626L117.502 56.4966H123.082L114.082 71.4006V83.3166H109.15ZM138.198 83.7486C136.23 83.7486 134.394 83.4006 132.69 82.7046C130.986 82.0086 129.498 81.0366 128.226 79.7886C126.954 78.5406 125.958 77.0766 125.238 75.3966C124.542 73.6926 124.194 71.8566 124.194 69.8886C124.194 67.8966 124.542 66.0606 125.238 64.3806C125.934 62.7006 126.918 61.2366 128.19 59.9886C129.462 58.7406 130.95 57.7806 132.654 57.1086C134.358 56.4126 136.206 56.0646 138.198 56.0646C140.19 56.0646 142.038 56.4126 143.742 57.1086C145.446 57.8046 146.934 58.7766 148.206 60.0246C149.478 61.2486 150.462 62.7006 151.158 64.3806C151.878 66.0606 152.238 67.8966 152.238 69.8886C152.238 71.8566 151.878 73.6926 151.158 75.3966C150.438 77.0766 149.442 78.5406 148.17 79.7886C146.898 81.0366 145.41 82.0086 143.706 82.7046C142.026 83.4006 140.19 83.7486 138.198 83.7486ZM138.198 79.2846C139.518 79.2846 140.73 79.0566 141.834 78.6006C142.938 78.1206 143.898 77.4606 144.714 76.6206C145.554 75.7806 146.19 74.7846 146.622 73.6326C147.078 72.4806 147.306 71.2326 147.306 69.8886C147.306 68.5446 147.078 67.3086 146.622 66.1806C146.19 65.0286 145.554 64.0326 144.714 63.1926C143.898 62.3286 142.938 61.6686 141.834 61.2126C140.73 60.7566 139.518 60.5286 138.198 60.5286C136.902 60.5286 135.702 60.7566 134.598 61.2126C133.494 61.6686 132.522 62.3286 131.682 63.1926C130.866 64.0326 130.23 65.0286 129.774 66.1806C129.318 67.3086 129.09 68.5446 129.09 69.8886C129.09 71.2326 129.318 72.4806 129.774 73.6326C130.23 74.7846 130.866 75.7806 131.682 76.6206C132.522 77.4606 133.494 78.1206 134.598 78.6006C135.702 79.0566 136.902 79.2846 138.198 79.2846ZM166.923 83.7486C164.859 83.7486 163.023 83.3166 161.415 82.4526C159.831 81.5886 158.583 80.4006 157.671 78.8886C156.759 77.3766 156.303 75.6606 156.303 73.7406V56.4966H161.199V73.4886C161.199 74.5926 161.439 75.5886 161.919 76.4766C162.423 77.3646 163.107 78.0606 163.971 78.5646C164.835 79.0446 165.819 79.2846 166.923 79.2846C168.051 79.2846 169.035 79.0446 169.875 78.5646C170.739 78.0606 171.411 77.3646 171.891 76.4766C172.395 75.5886 172.647 74.5926 172.647 73.4886V56.4966H177.543V73.7406C177.543 75.6606 177.087 77.3766 176.175 78.8886C175.263 80.4006 174.003 81.5886 172.395 82.4526C170.811 83.3166 168.987 83.7486 166.923 83.7486ZM182.431 83.3166V56.4966H192.403C194.227 56.4966 195.835 56.8326 197.227 57.5046C198.643 58.1526 199.747 59.1126 200.539 60.3846C201.331 61.6326 201.727 63.1566 201.727 64.9566C201.727 66.8046 201.283 68.3766 200.395 69.6726C199.531 70.9686 198.355 71.9286 196.867 72.5526L203.023 83.3166H197.479L190.891 71.5446L194.059 73.4166H187.327V83.3166H182.431ZM187.327 69.0966H192.475C193.363 69.0966 194.131 68.9286 194.779 68.5926C195.427 68.2326 195.931 67.7406 196.291 67.1166C196.651 66.4926 196.831 65.7726 196.831 64.9566C196.831 64.1166 196.651 63.3966 196.291 62.7966C195.931 62.1726 195.427 61.6926 194.779 61.3566C194.131 60.9966 193.363 60.8166 192.475 60.8166H187.327V69.0966Z" fill="#244588"/>
<g clip-path="url(#clip0_40_23)">
<path d="M46.2579 89.9752C63.9695 95.522 82.8242 85.6606 88.371 67.949C93.9179 50.2374 84.0564 31.3827 66.3449 25.8359C48.6333 20.289 29.7786 30.1505 24.2317 47.8621C18.6849 65.5736 28.5463 84.4283 46.2579 89.9752Z" stroke="#E6E6E6" stroke-width="8" stroke-linecap="round" stroke-linejoin="round"/>
<path d="M85.1828 113.125L73.2061 90.2263" stroke="#E6E6E6" stroke-width="8" stroke-linecap="round" stroke-linejoin="round"/>
<g clip-path="url(#clip1_40_23)">
<path d="M64.24 55.3333L61.9733 49.0933C61.7857 48.5788 61.4448 48.1342 60.9965 47.8195C60.5483 47.5048 60.0143 47.3351 59.4667 47.3333H56V50H59.4667L61.4133 55.3333H55L54.52 54H56V51.3333H49.3333V54H51.6667L54.0933 60.6667H53.2C52.6133 57.6933 50.12 55.4933 47 55.3467C43.2667 55.16 40 58.2667 40 62C40 65.7333 42.9333 68.6667 46.6667 68.6667C49.9467 68.6667 52.6 66.4133 53.2 63.3333H58.8C59.3867 66.3067 61.88 68.5067 65 68.6533C68.7333 68.8267 72 65.7333 72 61.9867C72 58.2533 69.0667 55.32 65.3333 55.32H64.24V55.3333ZM50.4267 63.3333C49.8933 64.8933 48.44 66 46.6667 66C44.4267 66 42.6667 64.24 42.6667 62C42.6667 59.76 44.4267 58 46.6667 58C48.44 58 49.8933 59.1067 50.4267 60.6667H46.6667V63.3333H50.4267ZM58.8 60.6667H56.9333L55.96 58H60C59.4133 58.7733 58.9867 59.6667 58.8 60.6667ZM65.3333 66C63.0933 66 61.3333 64.24 61.3333 62C61.3333 60.76 61.88 59.6933 62.7333 58.96L64.0133 62.48L66.52 61.5733L65.2267 58.0133C65.2667 58.0133 65.3067 58 65.3467 58C67.5867 58 69.3467 59.76 69.3467 62C69.3467 64.24 67.5733 66 65.3333 66Z" fill="#E6E6E6"/>
</g>
</g>
<defs>
<clipPath id="clip0_40_23">
<rect width="100.817" height="100.817" fill="white" transform="translate(30.1304) rotate(17.3893)"/>
</clipPath>
<clipPath id="clip1_40_23">
<rect width="32" height="32" fill="white" transform="translate(40 42)"/>
</clipPath>
</defs>
</svg>
